<?xml version="1.0" standalone="no"?>
<!DOCTYPE svg PUBLIC "-//W3C//DTD SVG 20010904//EN"
 "http://www.w3.org/TR/2001/REC-SVG-20010904/DTD/svg10.dtd">
<svg version="1.0" xmlns="http://www.w3.org/2000/svg"
 width="260.000000pt" height="260.000000pt" viewBox="0 0 260.000000 260.000000"
 preserveAspectRatio="xMidYMid meet">
<metadata>
Created by potrace 1.14, written by Peter Selinger 2001-2017
</metadata>
<g transform="translate(0.000000,260.000000) scale(0.100000,-0.100000)"
fill="#000000" stroke="none">
<path d="M1150 2593 c-209 -31 -393 -97 -545 -195 -324 -207 -545 -553 -593
-923 -9 -67 -9 -288 0 -350 14 -96 21 -125 29 -119 5 3 6 -2 3 -10 -9 -23 42
-170 97 -281 103 -208 285 -407 479 -524 129 -78 309 -146 455 -173 107 -19
372 -16 475 6 267 58 472 167 655 351 109 109 112 113 175 205 92 135 174 334
196 476 3 21 10 59 14 84 11 61 5 300 -9 380 -14 77 -48 198 -61 222 -6 10
-10 23 -10 28 0 15 -75 165 -113 225 -79 127 -222 277 -349 367 -106 76 -291
163 -413 195 -29 7 -105 23 -140 29 -37 7 -311 12 -345 7z"/>
</g>
</svg>
