<svg xmlns="http://www.w3.org/2000/svg" xmlns:xlink="http://www.w3.org/1999/xlink" width="600" zoomAndPan="magnify" viewBox="0 0 450 74.999997" height="100" preserveAspectRatio="xMidYMid meet" version="1.0"><defs><clipPath id="53580808a2"><path d="M 0.933594 16.40625 L 449.066406 16.40625 L 449.066406 58.40625 L 0.933594 58.40625 Z M 0.933594 16.40625 " clip-rule="nonzero"/></clipPath></defs><g clip-path="url(#53580808a2)"><path fill="#000000" d="M 299.238281 33.34375 L 299.238281 38.082031 L 449.066406 35.714844 Z M 150.761719 33.34375 L 0.933594 35.714844 L 150.761719 38.082031 Z M 288.890625 33.085938 C 287.433594 33.085938 286.25 34.265625 286.25 35.714844 C 286.25 37.160156 287.433594 38.339844 288.890625 38.339844 C 290.34375 38.339844 291.527344 37.160156 291.527344 35.714844 C 291.527344 34.265625 290.34375 33.085938 288.890625 33.085938 Z M 288.890625 39.917969 C 286.5625 39.917969 284.664062 38.03125 284.664062 35.714844 C 284.664062 33.394531 286.5625 31.511719 288.890625 31.511719 C 291.214844 31.511719 293.113281 33.394531 293.113281 35.714844 C 293.113281 38.03125 291.214844 39.917969 288.890625 39.917969 Z M 160.414062 33.085938 C 158.960938 33.085938 157.777344 34.265625 157.777344 35.714844 C 157.777344 37.160156 158.960938 38.339844 160.414062 38.339844 C 161.871094 38.339844 163.050781 37.160156 163.050781 35.714844 C 163.050781 34.265625 161.871094 33.085938 160.414062 33.085938 Z M 160.414062 39.917969 C 158.085938 39.917969 156.191406 38.03125 156.191406 35.714844 C 156.191406 33.394531 158.085938 31.511719 160.414062 31.511719 C 162.742188 31.511719 164.636719 33.394531 164.636719 35.714844 C 164.636719 38.03125 162.742188 39.917969 160.414062 39.917969 Z M 237.234375 30.835938 C 244.253906 36.324219 250.636719 39.703125 256.386719 40.972656 L 257.519531 40.972656 L 257.519531 40.550781 C 253.324219 40.550781 246.679688 37.3125 237.582031 30.835938 Z M 236.453125 31.964844 L 232.921875 35.902344 L 238.785156 41.746094 C 241.800781 38.882812 243.617188 37.453125 244.230469 37.453125 L 244.230469 37.03125 C 243.710938 37.03125 241.121094 35.339844 236.453125 31.964844 Z M 224.363281 18.378906 L 224.363281 19.152344 C 224.363281 19.484375 226.4375 21.542969 230.585938 25.34375 L 230.585938 24.992188 Z M 218.5 24.574219 L 218.5 24.992188 C 218.875 24.992188 220.949219 26.285156 224.714844 28.867188 C 227.5 27.082031 229.050781 26.191406 229.382812 26.191406 C 229.382812 25.859375 227.3125 23.773438 223.164062 19.929688 C 222.785156 19.929688 221.230469 21.472656 218.5 24.574219 Z M 221.960938 44.421875 L 218.074219 47.585938 C 222.40625 52.746094 224.765625 55.332031 225.140625 55.332031 C 227.972656 52.371094 229.382812 50.824219 229.382812 50.683594 Z M 222.742188 31.609375 C 222.742188 31.75 221.183594 33.183594 218.074219 35.902344 C 218.074219 36.230469 220.027344 38.175781 223.941406 41.746094 C 226.578125 40.007812 228.539062 38.316406 229.804688 36.679688 C 225.710938 33.300781 223.351562 31.609375 222.742188 31.609375 Z M 216.519531 47.9375 L 216.09375 48.710938 L 223.941406 56.875 L 223.941406 56.523438 C 222.8125 54.695312 220.332031 51.832031 216.519531 47.9375 Z M 211.078125 30.410156 L 211.078125 30.835938 C 220.214844 41.441406 226.722656 47.796875 230.585938 49.910156 L 230.585938 49.484375 C 218.144531 38.035156 211.898438 31.679688 211.851562 30.410156 Z M 204.78125 20.699219 L 204.78125 21.121094 C 210.953125 21.121094 220.476562 26.941406 233.34375 38.574219 C 235.652344 40.925781 236.808594 42.351562 236.808594 42.867188 L 237.582031 42.867188 L 237.582031 42.515625 C 226.886719 31.632812 219.207031 25.53125 214.539062 24.222656 C 213.171875 23.046875 210.324219 21.875 205.988281 20.699219 Z M 204.429688 35.480469 C 205.609375 36.230469 207.941406 38.058594 211.425781 40.972656 L 214.964844 37.03125 L 209.875 31.609375 C 206.242188 33.859375 204.429688 35.152344 204.429688 35.480469 Z M 186.828125 26.964844 L 186.828125 27.316406 C 190.597656 27.550781 198.277344 32.621094 209.875 42.515625 L 210.296875 41.746094 C 200.117188 33.0625 192.4375 28.140625 187.25 26.964844 Z M 185.621094 26.542969 L 185.621094 26.964844 L 186.402344 26.964844 L 186.402344 26.542969 Z M 224.363281 16.40625 C 228.792969 21.613281 231.386719 24.222656 232.144531 24.222656 C 237.746094 21.355469 241.917969 19.929688 244.652344 19.929688 C 246.726562 20.257812 247.761719 21.285156 247.761719 23.023438 L 247.761719 24.222656 L 246.628906 24.222656 C 246.628906 22.390625 245.832031 21.472656 244.230469 21.472656 C 240.175781 21.472656 234.074219 24.199219 225.917969 29.636719 L 225.917969 30.058594 C 227.425781 31.046875 229.5 32.738281 232.144531 35.128906 C 235.441406 31.234375 237.253906 29.285156 237.582031 29.285156 C 239.28125 30.695312 242.15625 32.644531 246.210938 35.128906 L 246.984375 35.128906 C 255.5625 29.175781 262.351562 26.191406 267.347656 26.191406 L 269.253906 26.191406 C 274.722656 26.191406 277.453125 28.398438 277.453125 32.808594 C 277.453125 35.480469 275.640625 37.148438 272.011719 37.804688 C 269.65625 37.804688 268.476562 35.855469 268.476562 31.964844 L 268.476562 31.609375 L 270.03125 31.609375 L 270.03125 33.578125 C 270.03125 35.363281 270.953125 36.253906 272.785156 36.253906 C 274.625 36.253906 275.664062 34.5625 275.902344 31.1875 C 275.902344 29.40625 273.425781 28.117188 268.476562 27.316406 C 262.492188 27.316406 255.726562 30.296875 248.1875 36.253906 C 253.375 38.597656 257.140625 39.773438 259.503906 39.773438 C 260.296875 38.976562 260.699219 38.058594 260.699219 37.03125 L 261.054688 37.03125 C 261.574219 37.125 261.832031 37.382812 261.832031 37.804688 L 261.832031 38.222656 C 261.832031 40.289062 260.394531 41.582031 257.519531 42.097656 C 253.984375 42.097656 250.097656 40.667969 245.855469 37.804688 C 245.574219 37.804688 242.695312 40.007812 237.234375 44.421875 L 236.808594 44.421875 C 234.921875 41.839844 232.847656 39.632812 230.585938 37.804688 C 227.425781 40.667969 225.613281 42.097656 225.140625 42.097656 L 225.140625 42.515625 L 232.566406 49.484375 C 232.28125 49.484375 229.40625 52.464844 223.941406 58.421875 L 223.589844 58.421875 L 214.1875 47.9375 L 221.183594 44.066406 L 221.183594 43.644531 C 221.183594 43.269531 219.371094 41.464844 215.738281 38.222656 C 215.410156 38.222656 213.457031 40.171875 209.875 44.066406 C 204.59375 39.375 201.601562 37.03125 200.894531 37.03125 C 195.804688 39.65625 192.292969 40.972656 190.359375 40.972656 L 189.15625 40.972656 C 187.085938 40.972656 186.046875 39.914062 186.046875 37.804688 L 186.046875 37.453125 C 186.140625 36.9375 186.402344 36.679688 186.828125 36.679688 L 187.25 36.679688 C 187.25 38.738281 188.03125 39.773438 189.582031 39.773438 C 191.09375 39.773438 194.601562 38.597656 200.117188 36.253906 C 192.105469 30.058594 185.199219 26.964844 179.40625 26.964844 C 174.457031 27.386719 171.980469 28.9375 171.980469 31.609375 C 172.59375 34.472656 173.890625 35.902344 175.871094 35.902344 C 177.234375 35.902344 178.015625 34.472656 178.203125 31.609375 C 177.964844 31.609375 177.847656 31.46875 177.847656 31.1875 L 179.40625 31.1875 L 179.40625 33.578125 C 179.40625 36.164062 177.847656 37.453125 174.738281 37.453125 C 171.863281 36.46875 170.425781 34.375 170.425781 31.1875 C 170.425781 27.765625 173.9375 25.554688 180.957031 24.574219 C 186.992188 24.574219 194.414062 27.835938 203.226562 34.351562 C 205.632812 32.992188 208.363281 31.164062 211.425781 28.867188 C 215.148438 32.761719 217.105469 34.707031 217.296875 34.707031 C 218.425781 34.09375 219.980469 32.808594 221.960938 30.835938 C 214.5625 25.25 208.199219 22.273438 202.871094 21.898438 C 201.789062 22.039062 201.25 22.929688 201.25 24.574219 C 200.777344 24.339844 200.398438 24.222656 200.117188 24.222656 L 200.117188 23.449219 C 200.117188 21.382812 201.554688 20.09375 204.429688 19.578125 L 205.5625 19.578125 C 207.585938 19.578125 211.378906 20.980469 216.941406 23.800781 C 217.554688 23.800781 220.027344 21.332031 224.363281 16.40625 " fill-opacity="1" fill-rule="nonzero"/></g></svg>